<svg xmlns="http://www.w3.org/2000/svg" width="512" height="512" viewBox="0 0 512 512" version="1.1"><path d="M 225.500 22.564 C 167.680 30.417, 115.296 58.456, 78.398 101.302 C 49.161 135.252, 31.115 174.129, 23.301 220 C 20.491 236.497, 20.766 278.123, 23.796 295 C 29.964 329.350, 41.541 358.561, 59.909 386.119 C 89.612 430.682, 130.816 462.347, 180.806 479.028 C 206.979 487.762, 227.319 491, 256 491 C 284.909 491, 304.897 487.787, 331.901 478.801 C 405.616 454.270, 462.661 393.319, 483.399 316.930 C 489.146 295.761, 490.447 284.643, 490.468 256.500 C 490.488 229.270, 489.710 221.558, 484.820 200.500 C 476.847 166.169, 457.957 129.582, 433.602 101.302 C 396.409 58.113, 343.943 30.182, 285.659 22.542 C 271.170 20.642, 239.563 20.654, 225.500 22.564 M 230.911 64.972 C 220.894 66.236, 200.195 71.521, 189.267 75.603 C 134.276 96.146, 91.460 140.482, 73.480 195.500 C 65.826 218.918, 64.500 227.855, 64.500 256 C 64.500 277.824, 64.758 281.756, 66.858 292 C 79.321 352.768, 116.420 401.252, 171.500 428.755 C 210.828 448.391, 259.570 453.415, 303.500 442.359 C 366.618 426.473, 417.858 378.769, 438.386 316.777 C 446.145 293.350, 447.500 284.310, 447.500 256 C 447.500 234.176, 447.242 230.244, 445.142 220 C 429.185 142.191, 372.896 85.184, 294.500 67.433 C 283.703 64.989, 280.245 64.688, 260 64.428 C 247.625 64.269, 234.535 64.514, 230.911 64.972 M 177 148.500 L 177 162 206.318 162 C 240.490 162, 242.905 162.412, 250.903 169.603 C 253.706 172.123, 256 174.594, 256 175.093 C 256 175.615, 243.893 176, 227.500 176 L 199 176 199 187.500 L 199 199 231 199 L 263 199 263 202.411 C 263 211.758, 256.216 224.756, 248.722 229.765 C 240.894 234.997, 240.871 235, 208.453 235 L 178 235 178 248.281 L 178 261.561 199.250 282.560 C 210.938 294.109, 237.260 320.083, 257.744 340.279 L 294.989 377 307.494 377 L 320 377 320 370.016 L 320 363.031 281.250 324.686 C 259.938 303.595, 237.213 281.240, 230.750 275.007 C 224.287 268.774, 219 263.298, 219 262.837 C 219 262.377, 224.080 262, 230.290 262 C 248.924 262, 258.173 258.512, 270.480 246.845 C 281.791 236.121, 287.754 224.218, 290.164 207.556 L 291.401 199 313.200 199 L 335 199 335 187.500 L 335 176 311.215 176 L 287.429 176 284.215 169.481 C 282.447 165.896, 281 162.746, 281 162.481 C 281 162.216, 289.775 162, 300.500 162 L 320 162 320 148.500 L 320 135 248.500 135 L 177 135 177 148.500" stroke="none" fill="#fcdb44" fill-rule="evenodd"/><path d="M 230.911 64.972 C 220.894 66.236, 200.195 71.521, 189.267 75.603 C 134.276 96.146, 91.460 140.482, 73.480 195.500 C 65.826 218.918, 64.500 227.855, 64.500 256 C 64.500 277.824, 64.758 281.756, 66.858 292 C 79.321 352.768, 116.420 401.252, 171.500 428.755 C 210.828 448.391, 259.570 453.415, 303.500 442.359 C 366.618 426.473, 417.858 378.769, 438.386 316.777 C 446.145 293.350, 447.500 284.310, 447.500 256 C 447.500 234.176, 447.242 230.244, 445.142 220 C 429.185 142.191, 372.896 85.184, 294.500 67.433 C 283.703 64.989, 280.245 64.688, 260 64.428 C 247.625 64.269, 234.535 64.514, 230.911 64.972 M 177 148.500 L 177 162 206.318 162 C 240.490 162, 242.905 162.412, 250.903 169.603 C 253.706 172.123, 256 174.594, 256 175.093 C 256 175.615, 243.893 176, 227.500 176 L 199 176 199 187.500 L 199 199 231 199 L 263 199 263 202.411 C 263 211.758, 256.216 224.756, 248.722 229.765 C 240.894 234.997, 240.871 235, 208.453 235 L 178 235 178 248.281 L 178 261.561 199.250 282.560 C 210.938 294.109, 237.260 320.083, 257.744 340.279 L 294.989 377 307.494 377 L 320 377 320 370.016 L 320 363.031 281.250 324.686 C 259.938 303.595, 237.213 281.240, 230.750 275.007 C 224.287 268.774, 219 263.298, 219 262.837 C 219 262.377, 224.080 262, 230.290 262 C 248.924 262, 258.173 258.512, 270.480 246.845 C 281.791 236.121, 287.754 224.218, 290.164 207.556 L 291.401 199 313.200 199 L 335 199 335 187.500 L 335 176 311.215 176 L 287.429 176 284.215 169.481 C 282.447 165.896, 281 162.746, 281 162.481 C 281 162.216, 289.775 162, 300.500 162 L 320 162 320 148.500 L 320 135 248.500 135 L 177 135 177 148.500" stroke="none" fill="#fcac04" fill-rule="evenodd"/></svg>